SplineFontDB: 3.2
FontName: Reona
FullName: Reona
FamilyName: Reona
Weight: Regular
Copyright: Made by Mieli "SurrealPartisan" Luukinen. No rights reserved.
UComments: "2025-8-16: Created with FontForge (http://fontforge.org)"
Version: 001.000
ItalicAngle: 0
UnderlinePosition: -100
UnderlineWidth: 50
Ascent: 800
Descent: 200
InvalidEm: 0
LayerCount: 2
Layer: 0 0 "Back" 1
Layer: 1 0 "Fore" 0
XUID: [1021 261 1737868294 11284623]
StyleMap: 0x0000
FSType: 0
OS2Version: 0
OS2_WeightWidthSlopeOnly: 0
OS2_UseTypoMetrics: 1
CreationTime: 1755373057
ModificationTime: 1755614332
OS2TypoAscent: 0
OS2TypoAOffset: 1
OS2TypoDescent: 0
OS2TypoDOffset: 1
OS2TypoLinegap: 90
OS2WinAscent: 0
OS2WinAOffset: 1
OS2WinDescent: 0
OS2WinDOffset: 1
HheadAscent: 0
HheadAOffset: 1
HheadDescent: 0
HheadDOffset: 1
Lookup: 260 0 0 "'mark' Mark Positioning in Latin lookup 0" { "'mark' Mark Positioning in Latin lookup 0-1"  "top"  } ['mark' ('DFLT' <'dflt' > 'latn' <'dflt' > ) ]
MarkAttachClasses: 1
DEI: 91125
Encoding: iso8859-15
UnicodeInterp: none
NameList: AGL For New Fonts
DisplaySize: -48
AntiAlias: 1
FitToEm: 0
WinInfo: 0 33 14
BeginPrivate: 0
EndPrivate
Grid
-1000 -163 m 0
 2000 -163 l 1024
-1000 -178 m 0
 2000 -178 l 1024
-1000 609 m 0
 2000 609 l 1024
-1000 303 m 0
 2000 303 l 1024
180 59 m 29
 180 244 l 29
 124 273 l 5
 68 244 l 29
 68 59 l 29
 124 30 l 5
 180 59 l 29
228 39 m 29
 124 -15 l 29
 20 39 l 29
 20 264 l 29
 124 318 l 29
 228 264 l 29
 228 39 l 29
EndSplineSet
AnchorClass2: "top" "'mark' Mark Positioning in Latin lookup 0-1"
BeginChars: 258 45

StartChar: o
Encoding: 111 111 0
Width: 248
Flags: W
HStem: 298 20G<85.4815 162.519>
VStem: 20 48<59 244> 180 48<59 244>
AnchorPoint: "top" 124 303 basechar 0
LayerCount: 2
Fore
SplineSet
180 59 m 29
 180 244 l 29
 124 273 l 5
 68 244 l 29
 68 59 l 29
 124 30 l 5
 180 59 l 29
228 39 m 29
 124 -15 l 29
 20 39 l 29
 20 264 l 29
 124 318 l 29
 228 264 l 29
 228 39 l 29
EndSplineSet
Validated: 1
EndChar

StartChar: n
Encoding: 110 110 1
Width: 248
Flags: W
HStem: 0 21G<20 68 180 228> 298 20G<29.6 68 85.4815 162.519>
VStem: 20 48<0 244 264 293> 180 48<0 244>
LayerCount: 2
Fore
SplineSet
68 318 m 29
 68 0 l 29
 20 0 l 29
 20 293 l 29
 68 318 l 29
20 264 m 29
 124 318 l 29
 228 264 l 29
 228 0 l 29
 180 0 l 29
 180 244 l 29
 124 273 l 5
 68 244 l 29
 20 264 l 29
EndSplineSet
Validated: 5
EndChar

StartChar: r
Encoding: 114 114 2
Width: 248
Flags: W
HStem: 0 21G<20 68> 298 20G<29.6 68 85.4815 162.519>
VStem: 20 48<0 244 264 293>
LayerCount: 2
Fore
SplineSet
68 318 m 25
 68 0 l 25
 20 0 l 25
 20 293 l 25
 68 318 l 25
180 244 m 29
 124 273 l 5
 68 244 l 29
 20 264 l 29
 124 318 l 29
 228 264 l 29
 180 244 l 29
EndSplineSet
Validated: 5
EndChar

StartChar: e
Encoding: 101 101 3
Width: 248
Flags: W
HStem: 147 42<68 180> 298 20G<85.4815 162.519>
VStem: 20 48<59 244> 180 48<189 244>
AnchorPoint: "top" 124 303 basechar 0
LayerCount: 2
Fore
SplineSet
180 189 m 5
 180 244 l 5
 124 273 l 5
 68 244 l 29
 68 59 l 29
 124 30 l 5
 180 59 l 21
 228 39 l 5
 124 -15 l 29
 20 39 l 29
 20 264 l 29
 124 318 l 29
 228 264 l 13
 228 147 l 29
 68 147 l 29
 68 189 l 29
 180 189 l 5
EndSplineSet
Validated: 5
EndChar

StartChar: i
Encoding: 105 105 4
Width: 88
Flags: W
HStem: 0 21G<20 68> 298 20G<29.6 68>
VStem: 20 48<0 293 344 382>
LayerCount: 2
Fore
SplineSet
68 344 m 1
 44 333 l 25
 20 344 l 1
 20 382 l 1
 44 393 l 25
 68 382 l 1
 68 344 l 1
68 318 m 29
 68 0 l 29
 20 0 l 29
 20 293 l 29
 68 318 l 29
EndSplineSet
Validated: 1
EndChar

StartChar: t
Encoding: 116 116 5
Width: 230
Flags: W
HStem: 0 21G<91 139> 261 42<20 210>
VStem: 91 48<0 377>
LayerCount: 2
Fore
SplineSet
210 261 m 29
 20 261 l 29
 20 303 l 29
 210 303 l 5
 210 261 l 29
139 402 m 25
 139 0 l 25
 91 0 l 25
 91 377 l 25
 139 402 l 25
EndSplineSet
Validated: 5
EndChar

StartChar: l
Encoding: 108 108 6
Width: 88
Flags: W
HStem: 0 21G<20 68> 589 20G<29.6 68>
VStem: 20 48<0 584>
LayerCount: 2
Fore
SplineSet
68 609 m 29
 68 0 l 29
 20 0 l 29
 20 584 l 29
 68 609 l 29
EndSplineSet
Validated: 1
EndChar

StartChar: h
Encoding: 104 104 8
Width: 248
Flags: W
HStem: 0 21G<20 68 180 228> 298 20G<85.4815 162.519> 589 20G<29.6 68>
VStem: 20 48<0 244 264 584> 180 48<0 244>
LayerCount: 2
Fore
SplineSet
68 609 m 29
 68 0 l 29
 20 0 l 29
 20 584 l 29
 68 609 l 29
20 264 m 29
 124 318 l 29
 228 264 l 29
 228 0 l 29
 180 0 l 29
 180 244 l 29
 124 273 l 5
 68 244 l 29
 20 264 l 29
EndSplineSet
Validated: 5
EndChar

StartChar: u
Encoding: 117 117 9
Width: 248
Flags: W
HStem: -15 318 0 21G<180 228>
VStem: 20 48<59 303> 180 48<59 303>
AnchorPoint: "top" 124 303 basechar 0
LayerCount: 2
Fore
SplineSet
180 0 m 29x70
 180 303 l 29
 228 303 l 29xb0
 228 0 l 29
 180 0 l 29x70
228 39 m 29
 124 -15 l 29
 20 39 l 29
 20 303 l 29
 68 303 l 29
 68 59 l 29
 124 30 l 5
 180 59 l 29
 228 39 l 29
EndSplineSet
Validated: 5
EndChar

StartChar: c
Encoding: 99 99 10
Width: 248
Flags: W
HStem: 298 20G<85.4815 162.519>
VStem: 20 48<59 244>
LayerCount: 2
Fore
SplineSet
228 39 m 9
 124 -15 l 25
 20 39 l 25
 20 264 l 25
 124 318 l 25
 228 264 l 17
 180 244 l 9
 124 273 l 1
 68 244 l 25
 68 59 l 25
 124 30 l 1
 180 59 l 17
 228 39 l 9
EndSplineSet
Validated: 1
EndChar

StartChar: b
Encoding: 98 98 11
Width: 248
Flags: W
HStem: 0 21G<20 68> 298 20G<85.4815 162.519> 589 20G<29.6 68>
VStem: 20 48<59 244 264 584> 180 48<59 244>
LayerCount: 2
Fore
SplineSet
68 609 m 29
 68 0 l 29
 20 0 l 29
 20 584 l 29
 68 609 l 29
180 59 m 29
 180 244 l 29
 124 273 l 5
 68 244 l 29
 68 59 l 29
 124 30 l 5
 180 59 l 29
228 39 m 29
 124 -15 l 29
 20 39 l 29
 20 264 l 29
 124 318 l 29
 228 264 l 29
 228 39 l 29
EndSplineSet
Validated: 5
EndChar

StartChar: d
Encoding: 100 100 12
Width: 248
Flags: W
HStem: 0 21G<180 228> 298 20G<85.4815 162.519> 589 20G<189.6 228>
VStem: 20 48<59 244> 180 48<39 584>
LayerCount: 2
Fore
SplineSet
228 609 m 29
 228 0 l 29
 180 0 l 29
 180 584 l 29
 228 609 l 29
180 59 m 29
 180 244 l 29
 124 273 l 5
 68 244 l 29
 68 59 l 29
 124 30 l 5
 180 59 l 29
228 39 m 29
 124 -15 l 29
 20 39 l 29
 20 264 l 29
 124 318 l 29
 228 264 l 29
 228 39 l 29
EndSplineSet
Validated: 5
EndChar

StartChar: q
Encoding: 113 113 13
Width: 248
Flags: W
HStem: -163 21G<180 228> 298 20G<85.4815 162.519 189.6 228>
VStem: 20 48<59 244> 180 48<-163 293>
LayerCount: 2
Fore
SplineSet
228 318 m 29
 228 -163 l 29
 180 -163 l 29
 180 293 l 29
 228 318 l 29
180 59 m 29
 180 244 l 29
 124 273 l 5
 68 244 l 29
 68 59 l 29
 124 30 l 5
 180 59 l 29
228 39 m 29
 124 -15 l 29
 20 39 l 29
 20 264 l 29
 124 318 l 29
 228 264 l 29
 228 39 l 29
EndSplineSet
Validated: 5
EndChar

StartChar: p
Encoding: 112 112 14
Width: 248
Flags: W
HStem: -163 21G<20 68> 298 20G<29.6 68 85.4815 162.519>
VStem: 20 48<-163 39 59 244 264 293> 180 48<59 244>
LayerCount: 2
Fore
SplineSet
68 318 m 29
 68 -163 l 29
 20 -163 l 29
 20 293 l 29
 68 318 l 29
180 59 m 25
 180 244 l 25
 124 273 l 1
 68 244 l 25
 68 59 l 25
 124 30 l 1
 180 59 l 25
228 39 m 25
 124 -15 l 25
 20 39 l 25
 20 264 l 25
 124 318 l 25
 228 264 l 25
 228 39 l 25
EndSplineSet
Validated: 5
EndChar

StartChar: g
Encoding: 103 103 15
Width: 248
Flags: W
HStem: 298 20G<85.4815 162.519 189.6 228>
VStem: 20 48<59 244> 180 48<-104 293>
LayerCount: 2
Fore
SplineSet
68 -104 m 29
 124 -133 l 1
 180 -104 l 25
 180 293 l 25
 228 318 l 25
 228 -124 l 25
 124 -178 l 25
 20 -124 l 29
 68 -104 l 29
180 59 m 25
 180 244 l 25
 124 273 l 1
 68 244 l 25
 68 59 l 25
 124 30 l 1
 180 59 l 25
228 39 m 25
 124 -15 l 25
 20 39 l 25
 20 264 l 25
 124 318 l 25
 228 264 l 25
 228 39 l 25
EndSplineSet
Validated: 5
EndChar

StartChar: k
Encoding: 107 107 16
Width: 248
Flags: W
HStem: 0 21G<20 68 180 228> 283 20G<180 228> 589 20G<29.6 68>
VStem: 20 48<0 156 201 584> 180 48<0 98 259 303>
LayerCount: 2
Fore
SplineSet
68 156 m 25
 68 201 l 1
 180 259 l 1
 180 303 l 29
 228 303 l 29
 228 239 l 1
 68 156 l 25
68 609 m 25
 68 0 l 25
 20 0 l 25
 20 584 l 25
 68 609 l 25
68 201 m 25
 228 118 l 1
 228 0 l 25
 180 0 l 25
 180 98 l 1
 68 156 l 1
 68 201 l 25
EndSplineSet
Validated: 5
EndChar

StartChar: m
Encoding: 109 109 17
Width: 408
Flags: W
HStem: 0 21G<20 68 180 228 340 388> 298 20G<29.6 68 85.4815 162.519 245.481 322.519>
VStem: 20 48<0 244 264 293> 180 48<0 244> 340 48<0 244>
CounterMasks: 1 38
LayerCount: 2
Fore
SplineSet
180 264 m 29
 284 318 l 29
 388 264 l 29
 388 0 l 29
 340 0 l 29
 340 244 l 29
 284 273 l 5
 228 244 l 29
 180 264 l 29
68 318 m 25
 68 0 l 25
 20 0 l 25
 20 293 l 25
 68 318 l 25
20 264 m 25
 124 318 l 25
 228 264 l 25
 228 0 l 25
 180 0 l 25
 180 244 l 25
 124 273 l 1
 68 244 l 25
 20 264 l 25
EndSplineSet
Validated: 5
EndChar

StartChar: s
Encoding: 115 115 18
Width: 248
Flags: W
HStem: 298 20G<85.4815 162.519>
VStem: 20 208
LayerCount: 2
Fore
SplineSet
124 175 m 13
 228 120 l 29
 180 100 l 29
 124 130 l 13
 20 184 l 29
 68 204 l 29
 124 175 l 13
180 14 m 29
 180 120 l 29
 228 120 l 29
 228 39 l 29
 180 14 l 29
68 59 m 29
 124 30 l 5
 180 59 l 29
 228 39 l 29
 124 -15 l 29
 20 39 l 29
 68 59 l 29
68 289 m 29
 68 184 l 29
 20 184 l 29
 20 264 l 29
 68 289 l 29
180 244 m 29
 124 273 l 5
 68 244 l 29
 20 264 l 29
 124 318 l 29
 228 264 l 29
 180 244 l 29
EndSplineSet
Validated: 5
EndChar

StartChar: a
Encoding: 97 97 19
Width: 248
Flags: W
HStem: 0 21G<180 228> 298 20G<85.4815 162.519>
VStem: 20 48<59 136> 180 48<39 41 59 136 156 244>
AnchorPoint: "top" 124 303 basechar 0
LayerCount: 2
Fore
SplineSet
180 0 m 25
 180 41 l 25
 228 41 l 25
 228 0 l 25
 180 0 l 25
180 136 m 25
 124 165 l 1
 68 136 l 25
 20 156 l 25
 124 210 l 25
 228 156 l 25
 180 136 l 25
68 156 m 1
 68 59 l 1
 124 30 l 1
 180 59 l 25
 180 244 l 25
 124 273 l 1
 68 244 l 17
 20 264 l 1
 124 318 l 25
 228 264 l 25
 228 39 l 25
 124 -15 l 25
 20 39 l 9
 20 156 l 25
 68 156 l 1
EndSplineSet
Validated: 5
EndChar

StartChar: x
Encoding: 120 120 20
Width: 248
Flags: W
HStem: 0 21G<20 68 180 228> 283 20G<20 68 180 228>
VStem: 20 48<0 94 208 303> 180 48<0 114 208 303>
LayerCount: 2
Fore
SplineSet
180 114 m 25
 228 114 l 25
 228 0 l 25
 180 0 l 25
 180 114 l 25
228 114 m 25
 180 94 l 25
 124 123 l 1
 68 94 l 25
 68 0 l 25
 20 0 l 25
 20 114 l 25
 124 168 l 25
 228 114 l 25
180 188 m 29
 180 303 l 29
 228 303 l 29
 228 188 l 29
 180 188 l 29
228 188 m 29
 124 134 l 29
 20 188 l 29
 20 303 l 29
 68 303 l 29
 68 208 l 29
 124 179 l 5
 180 208 l 29
 228 188 l 29
EndSplineSet
Validated: 5
EndChar

StartChar: v
Encoding: 118 118 21
Width: 248
Flags: W
HStem: 283 20G<20 68 180 228>
VStem: 20 48<244 303> 180 48<231 303>
LayerCount: 2
Fore
SplineSet
180 224 m 25
 180 303 l 25
 228 303 l 25
 228 231 l 25
 180 224 l 25
228 231 m 25
 124 -30 l 29
 20 231 l 29
 20 303 l 25
 68 303 l 25
 68 244 l 5
 124 90 l 5
 180 244 l 1
 228 231 l 25
EndSplineSet
Validated: 5
EndChar

StartChar: y
Encoding: 121 121 22
Width: 248
Flags: W
HStem: -163 21G<100 148> 283 20G<20 68 180 228>
VStem: 20 48<244 303> 100 48<-163 68> 180 48<231 303>
CounterMasks: 1 38
AnchorPoint: "top" 124 303 basechar 0
LayerCount: 2
Fore
SplineSet
148 93 m 25
 148 -163 l 25
 100 -163 l 25
 100 68 l 25
 148 93 l 25
180 224 m 25
 180 303 l 25
 228 303 l 25
 228 231 l 25
 180 224 l 25
228 231 m 25
 124 -30 l 25
 20 231 l 25
 20 303 l 25
 68 303 l 25
 68 244 l 1
 124 90 l 1
 180 244 l 1
 228 231 l 25
EndSplineSet
Validated: 5
EndChar

StartChar: w
Encoding: 119 119 23
Width: 408
Flags: W
HStem: 283 20G<20 68 180 228 340 388>
VStem: 20 48<244 303> 180 48<231 303> 340 48<231 303>
CounterMasks: 1 70
LayerCount: 2
Fore
SplineSet
340 224 m 29
 340 303 l 29
 388 303 l 29
 388 231 l 29
 340 224 l 29
388 231 m 29
 284 -30 l 29
 180 231 l 29
 180 303 l 29
 228 303 l 29
 228 244 l 5
 284 90 l 5
 340 244 l 5
 388 231 l 29
180 224 m 25
 180 303 l 25
 228 303 l 25
 228 231 l 25
 180 224 l 25
228 231 m 25
 124 -30 l 25
 20 231 l 25
 20 303 l 25
 68 303 l 25
 68 244 l 1
 124 90 l 1
 180 244 l 1
 228 231 l 25
EndSplineSet
Validated: 5
EndChar

StartChar: z
Encoding: 122 122 24
Width: 248
Flags: W
HStem: 0 42<68 228> 261 42<20 180>
VStem: 20 48<42 100> 180 48<204 264>
LayerCount: 2
Fore
SplineSet
228 0 m 29
 20 0 l 29
 20 42 l 29
 228 42 l 5
 228 0 l 29
228 261 m 25
 20 261 l 25
 20 303 l 25
 228 303 l 1
 228 261 l 25
124 175 m 17
 180 204 l 25
 228 184 l 25
 124 130 l 17
 68 100 l 25
 20 120 l 25
 124 175 l 17
68 14 m 25
 20 39 l 25
 20 120 l 25
 68 120 l 25
 68 14 l 25
180 289 m 25
 228 264 l 25
 228 184 l 25
 180 184 l 25
 180 289 l 25
EndSplineSet
Validated: 5
EndChar

StartChar: f
Encoding: 102 102 25
Width: 182
Flags: W
HStem: 0 21G<43 91> 261 42<20 162> 589 20G<108.481 147>
VStem: 43 48<0 535>
LayerCount: 2
Fore
SplineSet
147 564 m 1
 91 535 l 25
 43 555 l 25
 147 609 l 25
 147 564 l 1
162 261 m 25
 20 261 l 25
 20 303 l 25
 162 303 l 1
 162 261 l 25
91 579 m 29
 91 0 l 1
 43 0 l 25
 43 555 l 1
 91 579 l 29
EndSplineSet
Validated: 5
EndChar

StartChar: j
Encoding: 106 106 26
Width: 144
Flags: W
HStem: 298 20G<76 124>
VStem: 76 48<-104 303 344 382>
LayerCount: 2
Fore
SplineSet
124 344 m 5
 100 333 l 29
 76 344 l 5
 76 382 l 5
 100 393 l 29
 124 382 l 5
 124 344 l 5
20 -133 m 1
 76 -104 l 25
 124 -124 l 25
 20 -178 l 25
 20 -133 l 1
76 -149 m 1
 76 303 l 25
 124 318 l 1
 124 -124 l 1
 76 -149 l 1
EndSplineSet
Validated: 5
EndChar

StartChar: period
Encoding: 46 46 27
Width: 88
Flags: W
HStem: -11 60
VStem: 20 48<0 38>
LayerCount: 2
Fore
SplineSet
68 0 m 5
 44 -11 l 29
 20 0 l 5
 20 38 l 5
 44 49 l 29
 68 38 l 5
 68 0 l 5
EndSplineSet
Validated: 1
EndChar

StartChar: comma
Encoding: 44 44 28
Width: 88
Flags: W
HStem: -56 102
VStem: 20 48<0 38>
LayerCount: 2
Fore
SplineSet
39 -56 m 5
 -6 -56 l 5
 47 46 l 29
 68 0 l 5
 39 -56 l 5
68 0 m 5
 44 -11 l 29
 20 0 l 5
 20 38 l 5
 44 49 l 29
 68 38 l 5
 68 0 l 5
EndSplineSet
Validated: 5
EndChar

StartChar: colon
Encoding: 58 58 29
Width: 88
Flags: W
HStem: -11 286
VStem: 20 48<0 38 226 264>
LayerCount: 2
Fore
SplineSet
68 226 m 5
 44 215 l 29
 20 226 l 5
 20 264 l 5
 44 275 l 29
 68 264 l 5
 68 226 l 5
68 0 m 5
 44 -11 l 29
 20 0 l 5
 20 38 l 5
 44 49 l 29
 68 38 l 5
 68 0 l 5
EndSplineSet
Validated: 1
EndChar

StartChar: semicolon
Encoding: 59 59 30
Width: 88
Flags: W
HStem: -56 331
VStem: 20 48<0 38 226 264>
LayerCount: 2
Fore
SplineSet
39 -56 m 5
 -6 -56 l 5
 47 46 l 29
 68 0 l 5
 39 -56 l 5
68 0 m 5
 44 -11 l 29
 20 0 l 5
 20 38 l 5
 44 49 l 29
 68 38 l 5
 68 0 l 5
68 226 m 1
 44 215 l 25
 20 226 l 1
 20 264 l 1
 44 275 l 25
 68 264 l 1
 68 226 l 1
EndSplineSet
Validated: 5
EndChar

StartChar: hyphen
Encoding: 45 45 31
Width: 230
Flags: W
HStem: 202 42<20 210>
VStem: 20 190<202 244>
LayerCount: 2
Fore
SplineSet
210 202 m 29
 20 202 l 29
 20 244 l 29
 210 244 l 5
 210 202 l 29
EndSplineSet
Validated: 1
EndChar

StartChar: quotedbl
Encoding: 34 34 32
Width: 156
Flags: W
HStem: 513 96
VStem: 30 28<518 574> 98 28<518 574>
LayerCount: 2
Fore
SplineSet
126 518 m 5
 112 513 l 29
 98 518 l 5
 88 598 l 5
 112 609 l 29
 136 598 l 5
 126 518 l 5
58 518 m 1
 44 513 l 25
 30 518 l 1
 20 598 l 1
 44 609 l 25
 68 598 l 1
 58 518 l 1
EndSplineSet
Validated: 1
EndChar

StartChar: quotesingle
Encoding: 39 39 33
Width: 88
Flags: W
HStem: 513 96
VStem: 30 28<518 574>
LayerCount: 2
Fore
SplineSet
58 518 m 5
 44 513 l 29
 30 518 l 5
 20 598 l 5
 44 609 l 29
 68 598 l 5
 58 518 l 5
EndSplineSet
Validated: 1
EndChar

StartChar: uni0308
Encoding: 256 776 34
Width: 248
Flags: W
HStem: 333 60
VStem: 20 48<344 382> 180 48<344 382>
AnchorPoint: "top" 124 303 mark 0
LayerCount: 2
Fore
SplineSet
228 344 m 5
 204 333 l 29
 180 344 l 5
 180 382 l 5
 204 393 l 29
 228 382 l 5
 228 344 l 5
68 344 m 1
 44 333 l 25
 20 344 l 1
 20 382 l 1
 44 393 l 25
 68 382 l 1
 68 344 l 1
EndSplineSet
Validated: 1
EndChar

StartChar: dotlessi
Encoding: 257 305 35
Width: 88
Flags: W
HStem: 0 21G<20 68> 298 20G<29.6 68>
VStem: 20 48<0 293>
AnchorPoint: "top" 44 303 basechar 0
LayerCount: 2
Fore
SplineSet
68 318 m 25
 68 0 l 25
 20 0 l 25
 20 293 l 25
 68 318 l 25
EndSplineSet
Validated: 1
EndChar

StartChar: slash
Encoding: 47 47 42
Width: 323
Flags: W
HStem: 589 20G<247.282 303>
VStem: 20 283
LayerCount: 2
Fore
SplineSet
20 0 m 1
 255 609 l 5
 303 596 l 29
 68 -13 l 1
 20 0 l 1
EndSplineSet
Validated: 1
EndChar

StartChar: parenleft
Encoding: 40 40 43
Width: 144
Flags: W
HStem: 589 20G<85.4815 124>
VStem: 20 104
LayerCount: 2
Fore
SplineSet
124 30 m 5
 124 -15 l 29
 20 39 l 29
 68 59 l 29
 124 30 l 5
  Spiro
    124 30 v
    124 -15 v
    20 39 v
    68 59 v
    0 0 z
  EndSpiro
124 564 m 5
 68 535 l 29
 20 555 l 29
 124 609 l 29
 124 564 l 5
  Spiro
    124 564 v
    68 535 v
    20 555 v
    124 609 v
    0 0 z
  EndSpiro
68 579 m 5
 68 15 l 5
 20 39 l 5
 20 555 l 5
 68 579 l 5
EndSplineSet
Validated: 5
EndChar

StartChar: parenright
Encoding: 41 41 44
Width: 144
Flags: WO
HStem: 589 20G<20 58.5185>
VStem: 20 104
LayerCount: 2
Fore
SplineSet
20 30 m 5
 76 59 l 29
 124 39 l 29
 20 -15 l 29
 20 30 l 5
  Spiro
    76 59 v
    124 39 v
    20 -15 v
    20 30 v
    0 0 z
  EndSpiro
20 564 m 5
 20 609 l 29
 124 555 l 29
 76 535 l 29
 20 564 l 5
  Spiro
    20 609 v
    124 555 v
    76 535 v
    20 564 v
    0 0 z
  EndSpiro
76 579 m 5
 124 555 l 5
 124 39 l 5
 76 15 l 5
 76 579 l 5
EndSplineSet
Validated: 5
EndChar
